<svg width="764" height="206" viewBox="0 0 764 206" fill="none" xmlns="http://www.w3.org/2000/svg">
  <path d="M242.67 0.460938C261.694 0.460938 277.119 15.885 277.119 34.9114C277.119 53.9383 261.694 69.3623 242.67 69.3623H138.666C116.332 69.3623 104.48 78.5211 104.48 103.546C104.48 122.425 89.1747 137.73 70.2981 137.73H35.3678C16.3438 137.73 0.918335 122.306 0.918335 103.279C0.918335 84.2527 16.3438 68.8286 35.3678 68.8286H70.2981C93.5269 68.8286 104.48 59.5302 104.48 34.6448C104.48 15.7657 119.785 0.460938 138.666 0.460938H242.67Z" fill="white" />
  <path d="M172.96 136.637C153.936 136.637 138.511 152.061 138.511 171.088C138.511 190.115 153.936 205.539 172.96 205.539H242.67C261.694 205.539 277.119 190.115 277.119 171.088C277.119 152.061 261.694 136.637 242.67 136.637H172.96Z" fill="white" />
  <g clip-path="url(#clip0_384_1105)">
    <path d="M413.996 157.105C384.324 157.105 360.163 133.089 360.163 103.525C360.163 73.9604 384.324 49.9453 413.996 49.9453C433.723 49.9453 451.852 60.6547 461.308 77.9197L462.417 79.9642L447.907 87.8502L446.798 85.8057C440.245 73.8306 427.691 66.3989 414.029 66.3989C393.454 66.3989 376.727 83.0472 376.727 103.525C376.727 124.003 393.454 140.651 414.029 140.651C427.691 140.651 440.245 133.219 446.798 121.244L447.907 119.2L462.45 127.086L461.341 129.13C451.885 146.395 433.756 157.105 414.029 157.105H413.996Z" fill="white" />
    <path d="M553.161 155.481V107.613H494.567V155.481H478.035V51.5674H494.567V92.101H553.161V51.5674H569.692V155.481H553.161Z" fill="white" />
    <path d="M706.787 155.481V139.028L706.787 68.0534V51.5674H723.319V68.0534V139.028V155.481H706.787Z" fill="white" />
    <path d="M675.207 155.481H691.739L655.448 51.5674H638.884L659.524 110.632H618.244L638.884 51.5674H622.352L586.061 155.481H602.593L612.831 126.176H664.969L675.207 155.481Z" fill="white" />
  </g>
  <defs>
    <clipPath id="clip0_384_1105">
      <rect width="402.919" height="107.159" fill="black" transform="translate(360.163 49.9453)" />
    </clipPath>
  </defs>
</svg>