<svg xmlns="http://www.w3.org/2000/svg" width="64px" height="64px" viewBox="0 0 463 93">
    <g fill="none">
        <path fill="#FB641E" d="M53.437 71.577c-10.064 0-18.222-8.158-18.222-18.222 0-10.064 8.158-18.222 18.222-18.222 10.064 0 18.222 8.158 18.222 18.222a18.222 18.222 0 0 1-18.222 18.222"></path>
        <path fill="#FFF" d="M0 23.866 23.866 0l23.866 23.866-23.866 23.866zM98.229 4.746h12.386v12.386H98.229zM110.529 35.718v19.885c0 5.161 3.728 5.255 10.8 4.874v11.185c-17.3 1.912-23.134-3.156-23.134-16.059V35.718h-8.317V23.866h31.454v11.852h-10.803zm44.831-12.809v13.766c-6.4-.764-14.531 2.1-14.531 12.139v22.848h-12.332v-47.8h12.332v8.22c2.486-6.5 8.509-9.176 14.531-9.176m41.354 24.857c0-8.03-5.639-13.479-13.288-13.479-7.551 0-13.192 5.449-13.192 13.479s5.641 13.48 13.192 13.48c7.649 0 13.288-5.45 13.288-13.48m12.331-23.9v47.8h-12.331v-5.64c-3.441 4.3-8.6 6.979-15.582 6.979-12.713 0-23.23-11-23.23-25.238s10.52-25.235 23.23-25.235c6.978 0 12.141 2.677 15.582 6.978v-5.64l12.331-.004zm43.457 23.901c0-8.03-5.64-13.48-13.191-13.48-7.648 0-13.289 5.45-13.289 13.48 0 8.03 5.641 13.478 13.289 13.478 7.551 0 13.191-5.449 13.191-13.478m12.331-43.018v66.915h-12.331v-5.64c-3.441 4.4-8.508 6.979-15.485 6.979-12.81 0-23.326-10.994-23.326-25.236s10.516-25.235 23.331-25.235c6.977 0 12.044 2.582 15.485 6.979V4.746h12.326zm41.389 38.524c-1.531-6.883-6.692-9.655-11.854-9.655-6.6 0-11.091 3.538-12.522 9.655h24.376zM295.51 61.815c4.12.16 8.079-1.607 10.712-4.779l9.94 5.735C311.669 69.271 304.5 73 295.323 73c-16.059 0-26.191-10.994-26.191-25.237 0-14.243 10.223-25.234 25.232-25.234 14.147 0 24.183 11.185 24.183 25.236a28.423 28.423 0 0 1-.477 5.067h-36.038c1.722 6.308 6.979 8.985 13.478 8.985"></path>
        <path fill="#FB641E" d="M322.894.078h12.331v71.583h-12.331zM405.578 42.315v29.347h-12.332V43.844c0-6.5-3.918-9.846-9.465-9.846-6.021 0-10.514 3.537-10.514 11.854v25.81h-12.331v-47.8h12.331v5.353c2.868-4.3 7.84-6.69 14.244-6.69 10.134 0 18.067 7.073 18.067 19.787m43.744 4.687c0-7.552-5.64-13-13.383-13-7.743 0-13.384 5.449-13.384 13 0 7.646 5.642 13.095 13.384 13.095s13.383-5.449 13.383-13.095m12.045-23.135v45.5c0 15.678-12.332 22.752-24.95 22.752-10.228 0-18.449-3.921-22.656-11.663l10.517-6.021c2.007 3.726 5.161 6.69 12.522 6.69 7.742 0 12.522-4.205 12.522-11.758v-5.161c-3.345 4.492-8.507 7.263-15.294 7.263-13.575 0-23.8-10.992-23.8-24.47-.006-13.38 10.222-24.467 23.794-24.467 6.787 0 11.949 2.772 15.294 7.265v-5.93h12.051zm-119.51-12.378a6.717 6.717 0 1 1 12.907 2.593 6.718 6.718 0 0 1-6.253 4.107 6.746 6.746 0 0 1-6.655-6.7M342.219 71.643l.15-47.797 12.331.038-.15 47.797z"></path>
    </g>
</svg>