<svg xmlns="http://www.w3.org/2000/svg" xmlns:xlink="http://www.w3.org/1999/xlink" width="226.92" height="36" viewBox="0 0 226.92 36">
  <defs>
    <clipPath id="clip-path">
      <rect id="Rectangle_267" data-name="Rectangle 267" width="226.92" height="36" fill="none"/>
    </clipPath>
  </defs>
  <g id="Group_119" data-name="Group 119" transform="translate(0 3)">
    <g id="Group_118" data-name="Group 118" transform="translate(0 -3)" clip-path="url(#clip-path)">
      <path id="Path_125" data-name="Path 125" d="M26.262,20.334a2.13,2.13,0,0,0-.815-.268,15.906,15.906,0,0,0-1.96-.077H3.363a7.523,7.523,0,0,0-1.738.134,1.459,1.459,0,0,0-.8.5,4.6,4.6,0,0,0-.552,1.7A14.542,14.542,0,0,0,0,25.215a1.319,1.319,0,0,0,.191.824.8.8,0,0,0,.656.247,2.944,2.944,0,0,0,1.8-.975,12.677,12.677,0,0,1,1.607-1.306,10.272,10.272,0,0,1,2.536-1.072,11.14,11.14,0,0,1,2.875-.35,2.311,2.311,0,0,1,1.488.338c.165.152.361.588.361,1.8V46.809a7.313,7.313,0,0,1-.163,1.9,1.213,1.213,0,0,1-.534.7,6.2,6.2,0,0,1-.909.4c-.844.324-1.271.753-1.271,1.276a.855.855,0,0,0,.436.8,2.879,2.879,0,0,0,1.34.223h6.595a2.817,2.817,0,0,0,1.318-.223.856.856,0,0,0,.436-.8c0-.523-.394-.938-1.17-1.233a3.333,3.333,0,0,1-1.266-.667,1.746,1.746,0,0,1-.333-.716,8.425,8.425,0,0,1-.109-1.667V24.72c0-1.211.2-1.646.361-1.8a2.312,2.312,0,0,1,1.488-.338,10.871,10.871,0,0,1,3.321.477,9.725,9.725,0,0,1,2.823,1.474c.22.167.506.41.85.723a3.061,3.061,0,0,0,1.889,1.029.72.72,0,0,0,.615-.242,1.442,1.442,0,0,0,.165-.829,14.274,14.274,0,0,0-.31-3.165,2.831,2.831,0,0,0-.823-1.715" transform="translate(0 -17.09)"/>
      <path id="Path_126" data-name="Path 126" d="M245.734,50.041a3.163,3.163,0,0,1-.33-.209,6.631,6.631,0,0,1-1.153-.969,4.714,4.714,0,0,1-.75-1.112c-.226-.415-.575-1.122-1.039-2.1a51.406,51.406,0,0,0-5.717-9.6,13.6,13.6,0,0,0,5.525-3.491,7.553,7.553,0,0,0,1.951-5.145,6.1,6.1,0,0,0-3.019-5.7c-1.978-1.142-5.342-1.72-10-1.72H219.8a3.644,3.644,0,0,0-1.6.243.918.918,0,0,0-.5.871c0,.46.363.873,1.078,1.228a3.964,3.964,0,0,1,1.176.738,1.643,1.643,0,0,1,.322.693,6.866,6.866,0,0,1,.1,1.367V46.959a5.492,5.492,0,0,1-.174,1.611,1.3,1.3,0,0,1-.53.72c-.175.111-.423.247-.737.4-.83.433-1.234.862-1.234,1.313a.912.912,0,0,0,.5.883,3.8,3.8,0,0,0,1.6.231h5.6a5.243,5.243,0,0,0,1.956-.23.917.917,0,0,0,.523-.884,1.024,1.024,0,0,0-.278-.736,2.7,2.7,0,0,0-.911-.534,9.406,9.406,0,0,0-.876-.372,1.936,1.936,0,0,1-.62-.3,1.643,1.643,0,0,1-.321-.7,7.187,7.187,0,0,1-.1-1.4V38.395c1.632-.14,3.072-.3,4.284-.485a29.857,29.857,0,0,0,3.158-.626,41.82,41.82,0,0,1,4.785,6.6c1.2,2.107,1.805,3.7,1.805,4.729,0,.444-.3.8-.911,1.073-.266.119-.47.219-.621.306a1.841,1.841,0,0,0-.626.482,1.067,1.067,0,0,0-.2.658.814.814,0,0,0,.455.787,3.494,3.494,0,0,0,1.412.2h6.255a4.016,4.016,0,0,0,1.522-.2.808.808,0,0,0,.481-.788c0-.4-.283-.766-.844-1.095m-6.449-22.178c0,2.071-1.186,3.752-3.526,5s-6.044,2.151-10.982,2.68V25.882c0-1.46.266-2.36.791-2.674.549-.329,1.934-.5,4.118-.5,3.284,0,5.739.429,7.3,1.274a4.093,4.093,0,0,1,2.3,3.877" transform="translate(-186.133 -17.09)"/>
      <path id="Path_127" data-name="Path 127" d="M688.116,39.81c-.385,0-.934.416-1.729,1.308a13.544,13.544,0,0,1-1.914,1.841A14.384,14.384,0,0,1,680.615,45a13.233,13.233,0,0,1-4.147.628,11.151,11.151,0,0,1-8.8-3.7c-2.157-2.459-3.25-5.852-3.25-10.088,0-4.251,1.095-7.733,3.253-10.349a11.021,11.021,0,0,1,13.395-2.752,10.653,10.653,0,0,1,3.779,3.474,8.684,8.684,0,0,1,.757,1.418c.371.858.873,1.293,1.493,1.293a.919.919,0,0,0,.772-.294,1.687,1.687,0,0,0,.211-.993,31.786,31.786,0,0,0-.183-3.851,3.609,3.609,0,0,0-.6-1.886,9.033,9.033,0,0,0-4.1-2.045,22.929,22.929,0,0,0-6.5-.91,19.363,19.363,0,0,0-7.1,1.248,15.929,15.929,0,0,0-5.626,3.769,15.683,15.683,0,0,0-3.465,5.411,19.023,19.023,0,0,0-1.154,6.769c0,5.039,1.489,9.115,4.427,12.115s6.926,4.522,11.854,4.522a18.865,18.865,0,0,0,5.915-.89,16.905,16.905,0,0,0,5.052-2.714,9.171,9.171,0,0,0,2.026-2.133,3.81,3.81,0,0,0,.8-1.986,1.173,1.173,0,0,0-.4-.87,1.282,1.282,0,0,0-.9-.373" transform="translate(-563.714 -12.776)"/>
      <path id="Path_128" data-name="Path 128" d="M918.211,49.458c-.269-.142-.481-.257-.632-.343-.178-.1-.5-.432-1-1.464-.155-.324-.276-.559-.366-.716a69.832,69.832,0,0,0-5.178-8.306,36.038,36.038,0,0,0-5.179-5.751c1.768-1.624,4.551-4.53,8.276-8.643l.338-.385a6.96,6.96,0,0,1,1.965-1.444c.884-.455,1.314-.881,1.314-1.3a.913.913,0,0,0-.549-.885,4.84,4.84,0,0,0-1.817-.229h-5.1a5.559,5.559,0,0,0-1.82.2.808.808,0,0,0-.591.781,1.448,1.448,0,0,0,.918,1.249,4.392,4.392,0,0,1,.442.252,2.442,2.442,0,0,1,.672.552.872.872,0,0,1,.145.51c0,.426-.6,1.564-3.439,4.572-2.26,2.391-5.312,5.286-9.075,8.605V25.129a5.717,5.717,0,0,1,.163-1.6,1.216,1.216,0,0,1,.54-.708,6.892,6.892,0,0,1,.783-.4c.83-.433,1.234-.862,1.234-1.313a.918.918,0,0,0-.5-.871,3.645,3.645,0,0,0-1.6-.243h-5.6a3.644,3.644,0,0,0-1.6.243.918.918,0,0,0-.5.871c0,.46.363.873,1.078,1.228a3.961,3.961,0,0,1,1.176.738,1.642,1.642,0,0,1,.322.693,6.86,6.86,0,0,1,.1,1.368v21.83a5.493,5.493,0,0,1-.174,1.611,1.3,1.3,0,0,1-.53.721c-.176.111-.423.247-.737.4-.83.433-1.234.862-1.234,1.313a.913.913,0,0,0,.5.883,3.8,3.8,0,0,0,1.6.231h5.6a3.8,3.8,0,0,0,1.6-.231.913.913,0,0,0,.5-.883c0-.46-.375-.874-1.114-1.229a3.934,3.934,0,0,1-1.183-.711,1.818,1.818,0,0,1-.324-.728,7.032,7.032,0,0,1-.1-1.379v-6.52c.99-.829,1.95-1.652,2.851-2.445.884-.778,1.728-1.54,2.509-2.267a45.143,45.143,0,0,1,6.43,7.619c1.684,2.569,2.537,4.422,2.537,5.507a.662.662,0,0,1-.484.644c-.157.075-.285.139-.4.2a3.026,3.026,0,0,0-.727.6,1,1,0,0,0-.2.615.97.97,0,0,0,.571.96,5.518,5.518,0,0,0,2.021.239h4.374a3.668,3.668,0,0,0,1.76-.32,1.134,1.134,0,0,0,.606-1.052c0-.449-.381-.872-1.165-1.291" transform="translate(-761.307 -17.09)"/>
      <path id="Path_129" data-name="Path 129" d="M1139.895,45.739c-.35,0-.833.321-1.519,1.012a7.06,7.06,0,0,1-1.743,1.351,9.986,9.986,0,0,1-2.915.922,25.3,25.3,0,0,1-4.134.289h-4.918c-1.493,0-2.453-.21-2.853-.623s-.605-1.518-.605-3.279V36.018h8.988a15.913,15.913,0,0,1,1.852.085,2.535,2.535,0,0,1,.96.265,6.408,6.408,0,0,1,.684.441,2.451,2.451,0,0,0,1.286.587.831.831,0,0,0,.771-.394,2.38,2.38,0,0,0,.213-1.172V33.419a2.219,2.219,0,0,0-.218-1.18.867.867,0,0,0-.766-.343,2.453,2.453,0,0,0-1.285.587,8.111,8.111,0,0,1-.714.466,2.641,2.641,0,0,1-.931.24,15.848,15.848,0,0,1-1.852.085h-8.988V26.4a10.461,10.461,0,0,1,.163-2.379,1.136,1.136,0,0,1,.536-.7,4.573,4.573,0,0,1,1.7-.5,30.621,30.621,0,0,1,3.573-.149,44.57,44.57,0,0,1,5.578.268,7.935,7.935,0,0,1,2.935.852A9.512,9.512,0,0,1,1137.211,25c.592.563,1.033.836,1.346.836a.743.743,0,0,0,.638-.274,1.342,1.342,0,0,0,.187-.8c0-2.189-.168-3.5-.513-4-.357-.52-1.267-.773-2.782-.773h-19.852a3.642,3.642,0,0,0-1.6.243.918.918,0,0,0-.5.87c0,.46.363.873,1.077,1.228a3.963,3.963,0,0,1,1.177.737,1.645,1.645,0,0,1,.322.693,6.855,6.855,0,0,1,.1,1.368V46.96a5.487,5.487,0,0,1-.174,1.611,1.3,1.3,0,0,1-.529.72c-.176.111-.423.247-.737.4-.83.433-1.234.863-1.234,1.313a.912.912,0,0,0,.5.883,3.8,3.8,0,0,0,1.6.231h19.988a14.626,14.626,0,0,0,2.636-.165,2.12,2.12,0,0,0,1.19-.6l.01-.012a6.06,6.06,0,0,0,.555-1.731,12.587,12.587,0,0,0,.31-2.766,1.217,1.217,0,0,0-.241-.84,1.017,1.017,0,0,0-.788-.274" transform="translate(-952.541 -17.091)"/>
      <path id="Path_130" data-name="Path 130" d="M1348.944,50.041a3.162,3.162,0,0,1-.33-.209,6.624,6.624,0,0,1-1.153-.969,4.715,4.715,0,0,1-.75-1.112c-.226-.415-.575-1.122-1.039-2.1a51.393,51.393,0,0,0-5.717-9.6,13.6,13.6,0,0,0,5.525-3.491,7.554,7.554,0,0,0,1.952-5.145,6.1,6.1,0,0,0-3.019-5.7c-1.978-1.142-5.342-1.72-10-1.72h-11.4a3.642,3.642,0,0,0-1.6.243.918.918,0,0,0-.5.871c0,.46.363.873,1.077,1.228a3.961,3.961,0,0,1,1.176.738,1.643,1.643,0,0,1,.322.693,6.871,6.871,0,0,1,.1,1.367V46.959a5.494,5.494,0,0,1-.173,1.611,1.3,1.3,0,0,1-.53.72c-.175.111-.423.247-.737.4-.83.433-1.234.862-1.234,1.313a.912.912,0,0,0,.5.883,3.8,3.8,0,0,0,1.6.231h5.6a5.244,5.244,0,0,0,1.956-.23.917.917,0,0,0,.523-.884,1.023,1.023,0,0,0-.278-.736,2.7,2.7,0,0,0-.911-.534,9.4,9.4,0,0,0-.876-.372,1.938,1.938,0,0,1-.62-.3,1.642,1.642,0,0,1-.321-.7,7.175,7.175,0,0,1-.1-1.4V38.395c1.631-.14,3.072-.3,4.284-.485a29.865,29.865,0,0,0,3.158-.626,41.835,41.835,0,0,1,4.785,6.6c1.2,2.107,1.805,3.7,1.805,4.729,0,.444-.3.8-.911,1.073-.266.119-.47.219-.62.306a1.843,1.843,0,0,0-.626.482,1.068,1.068,0,0,0-.2.658.814.814,0,0,0,.455.787,3.5,3.5,0,0,0,1.412.2h6.255a4.015,4.015,0,0,0,1.522-.2.808.808,0,0,0,.481-.788c0-.4-.283-.766-.844-1.095M1342.5,27.863c0,2.071-1.186,3.752-3.526,5s-6.044,2.151-10.982,2.68V25.882c0-1.46.266-2.36.791-2.674.549-.329,1.934-.5,4.118-.5,3.284,0,5.739.429,7.3,1.274a4.093,4.093,0,0,1,2.3,3.877" transform="translate(-1129.328 -17.09)"/>
      <path id="Path_131" data-name="Path 131" d="M461.538,47.918A4.6,4.6,0,0,1,460.407,47a34.455,34.455,0,0,1-1.81-4.516q-1.433-3.975-2.816-7.2a111.755,111.755,0,0,0-6.549-12.986c-1.882-3.09-3.262-4.985-4.11-4.985s-2.229,1.895-4.111,4.985a111.726,111.726,0,0,0-6.549,12.986q-1.382,3.228-2.816,7.2A34.5,34.5,0,0,1,429.836,47a4.6,4.6,0,0,1-1.132.921q-.93.617-.93,1.245,0,.477.578.661a2.738,2.738,0,0,0,.421.09,4.378,4.378,0,0,0,2.853-.569c1.926-1.141,6.558-2.779,13.5-2.779s11.561,1.634,13.49,2.776a4.383,4.383,0,0,0,2.98.552,2.381,2.381,0,0,0,.3-.07q.578-.184.578-.661,0-.628-.93-1.245m-16.882-4.524a33.673,33.673,0,0,0-9.1,1.37.312.312,0,0,1-.41-.375c4.746-15.412,9.834-23.314,9.834-23.314V43.1a.31.31,0,0,1-.32.3" transform="translate(-365.728 -14.798)" fill="#ae0d12"/>
      <path id="Path_132" data-name="Path 132" d="M1513.824,7.922a3.961,3.961,0,1,1,3.961-3.961,3.965,3.965,0,0,1-3.961,3.961m0-7.487a3.526,3.526,0,1,0,3.526,3.526,3.53,3.53,0,0,0-3.526-3.526" transform="translate(-1290.865 0)" fill="#212121"/>
      <path id="Path_133" data-name="Path 133" d="M1526.447,16.967a.91.91,0,0,0,.013.178.225.225,0,0,0,.044.1.255.255,0,0,0,.085.043c.047.018.083.033.107.046a.325.325,0,0,1,.108.063.109.109,0,0,1,.03.079.1.1,0,0,1-.055.094.649.649,0,0,1-.235.027h-.7a.465.465,0,0,1-.19-.027.1.1,0,0,1-.052-.094q0-.072.144-.147c.039-.02.07-.037.093-.051a.181.181,0,0,0,.074-.1.706.706,0,0,0,.022-.206V14.25a.859.859,0,0,0-.013-.174.218.218,0,0,0-.044-.094.529.529,0,0,0-.152-.1c-.083-.041-.124-.087-.124-.137a.1.1,0,0,1,.052-.092.445.445,0,0,1,.19-.028h1.419a2.623,2.623,0,0,1,1.235.212.738.738,0,0,1,.367.694.918.918,0,0,1-.238.628,1.688,1.688,0,0,1-.7.438,6.256,6.256,0,0,1,.725,1.211q.088.185.13.263a.6.6,0,0,0,.1.142.831.831,0,0,0,.147.123.351.351,0,0,0,.042.027c.064.038.1.078.1.121a.082.082,0,0,1-.05.082.487.487,0,0,1-.182.023h-.779a.422.422,0,0,1-.168-.023.082.082,0,0,1-.047-.082.116.116,0,0,1,.021-.071.215.215,0,0,1,.072-.055.829.829,0,0,1,.077-.037c.082-.038.124-.088.124-.15a1.4,1.4,0,0,0-.227-.6,5.185,5.185,0,0,0-.605-.833,3.642,3.642,0,0,1-.4.08q-.233.035-.549.062Zm0-1.4a4.006,4.006,0,0,0,1.394-.338.715.715,0,0,0,.448-.638.53.53,0,0,0-.3-.5,2,2,0,0,0-.917-.161,1.268,1.268,0,0,0-.522.064q-.107.064-.107.348Z" transform="translate(-1304.323 -11.651)" fill="#212121"/>
    </g>
  </g>
</svg>
